<?xml version="1.0" standalone="no"?>
<!DOCTYPE svg PUBLIC "-//W3C//DTD SVG 20010904//EN"
 "http://www.w3.org/TR/2001/REC-SVG-20010904/DTD/svg10.dtd">
<svg version="1.0" xmlns="http://www.w3.org/2000/svg"
 width="640.000000pt" height="640.000000pt" viewBox="0 0 640.000000 640.000000"
 preserveAspectRatio="xMidYMid meet">
<metadata>
Created by potrace 1.11, written by Peter Selinger 2001-2013
</metadata>
<g transform="translate(0.000000,640.000000) scale(0.100000,-0.100000)"
fill="#000000" stroke="none">
<path d="M2426 4863 c-8 -9 -28 -12 -83 -15 -24 -2 -43 -7 -43 -13 0 -5 -4 -4
-8 3 -6 9 -16 10 -33 3 -17 -6 -32 -5 -45 2 -16 9 -17 8 -7 -5 10 -12 10 -15
-2 -15 -8 0 -15 5 -15 11 0 6 -4 5 -9 -2 -4 -7 -14 -12 -22 -10 -8 2 -13 -2
-12 -8 1 -6 -4 -11 -12 -11 -8 0 -12 4 -9 9 3 4 1 8 -4 8 -6 0 -13 -8 -16 -17
-6 -15 -8 -15 -16 -3 -8 12 -10 12 -10 1 0 -7 -6 -11 -15 -7 -8 3 -14 2 -14
-2 3 -19 -2 -23 -16 -12 -13 11 -14 10 -9 -3 4 -12 0 -15 -20 -13 -23 3 -24 1
-14 -12 11 -13 11 -14 0 -8 -7 4 -24 -4 -42 -22 -16 -16 -32 -27 -35 -24 -5 5
-9 -14 -6 -30 0 -4 -7 -4 -17 -1 -9 3 -14 3 -11 -1 4 -4 -6 -20 -22 -37 -15
-17 -26 -36 -22 -45 3 -9 -1 -14 -13 -14 -14 0 -16 -2 -6 -9 11 -7 10 -9 -3
-15 -9 -3 -13 -11 -10 -16 4 -6 1 -9 -6 -8 -7 2 -13 -2 -14 -9 0 -17 -15 -29
-16 -12 0 8 -4 4 -10 -9 -6 -15 -13 -21 -21 -16 -11 6 -11 5 0 -8 10 -13 9
-15 -13 -13 -14 2 -25 -1 -25 -7 0 -6 -7 -7 -16 -4 -8 3 -12 2 -9 -4 3 -6 1
-10 -5 -10 -6 0 -8 -4 -5 -10 3 -5 0 -7 -8 -4 -9 3 -22 -4 -31 -18 -9 -13 -19
-22 -21 -20 -13 6 -26 1 -20 -8 3 -6 -1 -13 -9 -16 -9 -3 -13 -10 -10 -15 3
-5 0 -9 -6 -9 -7 0 -10 -6 -7 -12 2 -7 -2 -21 -11 -30 -10 -12 -11 -18 -4 -18
7 0 12 -5 12 -11 0 -5 -6 -7 -12 -3 -10 6 -10 5 -1 -8 7 -8 9 -18 5 -22 -12
-13 -9 -55 6 -61 8 -3 11 -12 8 -20 -6 -17 5 -20 21 -4 7 7 12 2 15 -20 2 -17
0 -27 -5 -24 -5 3 -5 -3 1 -13 5 -11 8 -29 7 -42 -1 -13 3 -26 8 -29 6 -4 7
-1 2 7 -6 9 -4 11 5 5 10 -6 9 -11 -5 -22 -16 -11 -14 -16 5 -15 3 0 5 -33 5
-74 0 -41 4 -74 8 -74 5 0 6 -4 2 -9 -3 -5 -1 -12 4 -16 14 -8 2 -36 -13 -29
-6 3 -4 -1 5 -8 12 -9 14 -20 8 -35 -5 -14 -4 -25 3 -29 7 -5 8 -2 3 6 -5 9
-4 11 4 6 6 -4 8 -13 4 -19 -12 -19 -12 -36 -2 -43 6 -3 5 -11 -2 -20 -9 -11
-8 -14 2 -14 10 0 10 -3 1 -12 -7 -7 -12 -17 -12 -23 0 -5 5 -3 10 5 6 10 8
-2 6 -37 -1 -29 1 -50 4 -48 4 2 7 -2 7 -10 0 -8 -4 -12 -8 -9 -4 2 -11 -1
-15 -7 -4 -7 -3 -9 3 -6 6 4 16 0 23 -8 11 -13 10 -14 -6 -8 -17 6 -17 5 -5
-10 7 -9 10 -17 5 -17 -5 0 -2 -5 6 -10 12 -8 10 -10 -10 -11 -15 -1 -19 -3
-9 -6 21 -5 30 -38 16 -52 -8 -8 -7 -11 3 -11 11 0 11 -3 2 -12 -15 -15 -16
-32 -2 -23 11 7 9 -23 -3 -41 -4 -7 0 -17 8 -24 12 -10 13 -16 4 -26 -8 -10
-8 -14 0 -14 6 0 11 -5 11 -11 0 -5 -5 -7 -10 -4 -6 4 -9 1 -8 -7 2 -7 10 -16
18 -20 12 -5 12 -7 -2 -7 -21 -1 -23 -12 -6 -29 9 -9 9 -12 0 -12 -9 0 -10 -5
-3 -18 6 -11 6 -24 0 -34 -6 -11 -5 -19 1 -23 8 -5 7 -11 -1 -21 -10 -12 -8
-13 7 -8 18 5 18 5 0 -10 -15 -12 -16 -16 -5 -16 8 0 15 -9 15 -20 0 -14 -5
-19 -15 -15 -12 5 -11 2 2 -13 13 -14 14 -21 5 -30 -9 -9 -9 -12 2 -12 13 0
13 -2 0 -10 -13 -9 -13 -10 0 -10 13 0 13 -1 0 -10 -8 -5 -10 -10 -5 -10 12 0
14 -95 2 -106 -4 -4 -2 -14 5 -21 9 -11 9 -17 -3 -24 -10 -6 -10 -9 -1 -9 14
0 12 -21 -3 -32 -5 -4 -2 -10 8 -14 17 -6 17 -7 0 -27 -10 -11 -13 -17 -6 -14
12 8 13 -39 0 -59 -3 -6 -3 -14 1 -18 10 -11 11 -76 1 -76 -5 0 -6 -7 -3 -15
4 -8 11 -12 18 -8 8 4 8 2 -1 -7 -6 -7 -9 -19 -6 -28 5 -11 3 -13 -8 -7 -11 7
-12 6 -2 -6 6 -8 11 -18 11 -24 0 -5 -5 -16 -11 -24 -7 -8 -7 -12 -2 -9 6 3
10 -5 10 -18 0 -13 -4 -24 -9 -24 -5 0 -3 -6 3 -14 9 -10 9 -16 1 -21 -8 -5
-8 -11 -1 -19 7 -9 7 -16 -1 -24 -9 -9 -9 -12 2 -12 13 0 13 -2 0 -10 -12 -8
-13 -11 -1 -19 11 -7 11 -9 0 -14 -9 -4 -10 -6 -2 -6 7 -1 10 -8 6 -17 -5 -13
-7 -13 -14 -2 -7 10 -9 10 -9 0 0 -7 7 -15 15 -18 14 -6 14 -8 0 -18 -17 -12
-11 -46 9 -46 6 0 5 -4 -3 -9 -12 -8 -13 -12 -1 -25 11 -14 10 -16 -6 -9 -17
6 -17 5 -5 -10 11 -14 11 -17 0 -17 -11 0 -11 -2 1 -10 11 -7 11 -10 2 -10 -9
0 -10 -5 -2 -19 8 -16 6 -22 -7 -30 -10 -6 -12 -11 -6 -11 13 0 13 -34 0 -46
-4 -4 -2 -13 4 -20 7 -9 5 -20 -8 -41 -15 -24 -15 -26 -1 -15 14 11 16 11 11
-7 -3 -12 -10 -18 -17 -14 -6 3 -6 0 2 -8 15 -16 16 -33 0 -23 -7 4 -8 3 -4
-5 4 -6 12 -9 17 -6 5 4 9 1 9 -4 0 -6 -5 -11 -12 -11 -6 0 -8 -3 -5 -6 4 -4
13 -1 22 6 13 11 14 10 9 -5 -5 -13 -4 -16 4 -11 8 5 10 1 5 -10 -5 -13 -2
-16 8 -12 16 6 41 -16 31 -28 -4 -4 1 -4 11 -1 10 4 25 3 35 -2 25 -14 56 -24
65 -23 4 1 7 -3 7 -9 0 -8 4 -8 14 0 11 9 16 9 22 0 4 -8 3 -9 -4 -5 -7 4 -12
2 -12 -3 0 -11 6 -13 64 -15 19 0 32 -4 29 -9 -7 -12 12 -8 26 6 10 10 11 9 6
-5 -8 -21 5 -24 24 -5 11 10 12 9 6 -2 -6 -10 -4 -13 7 -8 9 3 20 1 26 -5 8
-8 16 -7 27 2 13 11 14 10 9 -4 -5 -14 -3 -15 20 -6 18 7 26 6 26 -1 0 -7 6
-6 17 2 15 12 16 12 8 -1 -8 -13 -7 -13 8 -1 9 7 17 9 17 3 0 -5 7 -13 16 -16
14 -5 15 -4 4 9 -11 13 -8 13 29 1 29 -11 42 -12 47 -4 5 7 2 8 -6 3 -8 -5
-11 -4 -6 3 9 15 38 3 29 -12 -3 -6 4 -2 17 9 13 11 20 15 17 8 -5 -8 1 -11
20 -9 16 2 34 -1 42 -8 11 -8 13 -8 7 2 -4 7 -1 12 9 12 10 0 14 -5 9 -12 -5
-10 -4 -10 6 -1 11 10 16 9 27 -5 11 -14 12 -14 8 -1 -5 13 0 15 24 11 19 -2
29 -9 25 -16 -3 -6 0 -4 8 4 16 19 76 19 88 0 6 -10 9 -9 12 1 5 12 9 12 28 1
12 -8 19 -9 15 -3 -3 6 1 11 9 11 9 0 16 -6 16 -12 0 -10 2 -10 8 0 10 15 112
23 112 8 0 -6 4 -5 9 2 4 7 12 12 17 11 5 -1 12 0 17 1 19 6 33 5 39 -4 4 -6
13 -5 22 3 13 11 16 11 16 0 0 -8 6 -5 15 7 8 10 15 15 14 9 -3 -24 2 -27 17
-9 8 10 12 12 8 4 -7 -13 -5 -13 9 -1 15 12 17 11 17 -5 0 -17 0 -17 13 0 11
15 17 17 35 7 18 -10 21 -9 16 4 -4 8 -1 15 5 15 6 0 11 -4 11 -8 0 -11 32
-12 46 -1 6 5 24 10 40 11 16 1 35 6 43 12 11 8 13 8 7 -1 -5 -9 -2 -11 8 -7
9 3 13 11 10 16 -4 6 2 6 14 -1 16 -8 25 -6 48 12 15 12 25 17 21 10 -5 -7 0
-9 13 -6 11 3 17 9 14 14 -3 6 6 8 20 5 20 -3 23 -1 19 12 -5 11 -2 14 9 9 10
-3 19 0 22 10 4 8 13 13 21 9 8 -3 14 -2 14 2 -4 28 1 34 18 21 15 -13 15 -12
4 10 -8 15 -9 21 -2 17 6 -4 11 0 11 9 0 9 4 14 8 11 5 -3 9 1 9 9 0 8 -4 12
-9 9 -4 -3 -5 2 -2 10 3 9 11 13 18 9 7 -4 7 -2 -1 8 -9 11 -9 19 -2 26 8 8 7
13 -2 18 -8 6 -10 4 -4 -5 5 -9 4 -11 -4 -6 -9 6 -9 11 0 22 9 11 8 14 -2 14
-12 0 -12 2 0 9 9 6 10 10 2 16 -9 5 -9 10 0 21 9 11 8 14 -2 14 -11 0 -11 2
1 10 8 5 10 10 4 10 -13 0 -13 48 0 69 7 11 10 11 17 0 8 -12 11 -11 19 1 8
12 10 12 10 1 0 -11 3 -11 17 0 14 12 16 12 8 0 -6 -11 -4 -13 11 -7 32 13 55
15 49 5 -4 -5 -2 -9 4 -9 5 0 12 6 14 13 4 10 6 10 6 0 1 -7 8 -13 17 -13 8 0
13 4 10 8 -3 5 1 9 9 9 8 0 12 -4 9 -8 -2 -4 5 -7 16 -6 13 1 19 6 15 16 -4
11 -3 12 10 1 8 -7 15 -9 15 -4 0 5 5 2 10 -6 6 -10 10 -11 10 -2 0 6 7 12 16
12 9 0 13 -5 9 -13 -4 -6 1 -3 9 7 9 11 16 14 16 8 0 -7 5 -12 11 -12 6 0 8 7
5 16 -4 10 -2 13 7 7 19 -12 37 -12 37 -1 0 6 9 8 20 5 11 -3 20 -1 20 3 0 5
9 7 20 5 11 -2 18 0 15 6 -4 5 2 9 12 9 11 0 25 6 32 13 11 10 13 9 7 -1 -6
-10 -2 -10 18 -1 14 7 23 15 21 19 -2 4 7 6 20 4 14 -1 23 2 20 7 -3 4 6 11
20 15 13 3 22 11 19 16 -4 6 -1 9 7 6 8 -3 20 1 27 9 8 7 17 11 22 8 4 -3 7 3
6 13 0 9 5 16 12 14 7 -1 16 8 21 20 11 28 46 59 57 50 5 -4 2 2 -6 12 -8 11
-10 17 -5 14 6 -4 17 2 24 14 10 16 10 19 -1 13 -7 -3 -5 0 4 8 10 8 15 17 11
20 -3 4 -1 7 6 7 7 0 11 6 8 13 -2 6 3 18 12 25 12 10 13 12 1 6 -12 -7 -13
-5 -3 8 7 8 10 18 6 21 -3 4 0 7 8 7 8 0 15 9 15 19 0 11 -4 17 -8 15 -4 -3
-8 -3 -8 1 0 3 10 10 23 15 18 7 18 9 4 9 -10 1 -15 6 -12 11 4 6 10 8 14 6 4
-3 8 1 8 9 0 8 -5 12 -10 8 -5 -3 -4 4 2 15 6 11 11 32 11 47 0 16 4 24 11 19
7 -4 6 2 -2 17 -12 23 -11 23 6 9 17 -14 18 -14 6 8 -8 15 -8 22 -1 22 6 0 8
5 5 10 -4 6 -1 18 7 27 9 12 9 15 1 9 -16 -9 -17 6 -2 21 8 8 8 13 0 17 -6 4
-11 13 -11 19 0 7 4 6 10 -3 7 -11 10 -3 10 28 0 32 3 41 13 36 6 -4 3 3 -7
15 -20 22 -20 22 0 15 16 -6 17 -5 7 7 -7 7 -13 17 -13 22 0 4 6 5 13 1 7 -5
6 0 -3 11 -13 17 -13 18 0 13 10 -4 15 2 16 18 1 14 -5 25 -15 27 -14 4 -13 5
2 6 15 1 16 4 6 22 -6 12 -7 19 -1 15 5 -3 13 1 16 10 9 23 7 31 -4 14 -5 -8
-12 -12 -15 -8 -3 3 1 13 10 22 9 9 12 16 7 16 -6 0 -12 7 -15 14 -4 10 -1 13
8 10 10 -4 12 2 8 26 -3 21 -1 30 6 26 12 -8 4 21 -11 41 -6 7 -4 14 3 19 8 5
9 3 4 -6 -5 -8 -4 -11 2 -7 6 4 8 18 5 33 -3 19 -7 22 -13 12 -6 -9 -9 -9 -9
-1 0 6 4 14 9 18 13 7 10 48 -4 58 -6 5 -3 13 9 22 17 13 18 15 3 15 -20 0
-22 11 -5 28 9 9 9 12 -1 12 -11 0 -11 3 0 16 12 15 11 16 -11 9 -23 -7 -23
-7 -6 11 18 17 18 18 0 25 -11 4 -13 8 -6 8 6 1 12 8 12 16 0 8 -6 15 -12 15
-9 0 -8 4 2 10 11 7 12 10 2 10 -9 0 -13 11 -11 33 2 18 -1 31 -7 30 -6 -1
-11 4 -11 12 0 8 3 12 7 10 4 -2 7 2 7 10 0 8 -5 11 -10 8 -6 -4 -8 5 -5 20 3
15 1 24 -3 21 -5 -3 -9 0 -9 6 0 6 -5 8 -12 4 -7 -4 -8 -3 -4 5 4 6 11 9 15 7
4 -3 8 1 8 9 0 8 -4 12 -9 9 -4 -3 -8 2 -8 11 0 9 -7 23 -15 32 -8 8 -13 19
-10 24 4 5 1 9 -5 9 -6 0 -8 5 -5 10 3 6 1 10 -5 10 -6 0 -8 5 -5 10 3 6 1 10
-4 10 -6 0 -10 3 -9 8 3 7 -8 22 -44 62 -9 10 -14 21 -10 24 3 3 -2 6 -11 6
-9 0 -17 5 -17 11 0 5 5 7 12 3 6 -4 8 -3 5 4 -4 5 -17 8 -30 5 -12 -3 -19 -3
-15 2 9 10 -16 35 -36 35 -9 0 -16 5 -16 10 0 6 -7 10 -15 10 -8 0 -15 5 -15
11 0 5 -4 8 -9 5 -11 -7 -42 4 -37 13 2 3 -7 7 -21 8 -14 0 -29 7 -34 15 -8
13 -13 4 -9 -17 1 -5 -8 0 -20 13 -21 23 -36 30 -25 12 3 -5 1 -10 -4 -10 -6
0 -11 5 -11 11 0 5 -5 7 -10 4 -6 -4 -18 -1 -27 7 -12 9 -15 9 -9 1 4 -7 2
-13 -3 -13 -6 0 -11 4 -11 10 0 5 -13 7 -32 3 -19 -4 -29 -2 -25 4 4 6 -10 7
-38 3 -24 -4 -50 -3 -57 3 -9 6 -7 7 7 2 16 -5 18 -4 8 6 -10 10 -16 10 -24 2
-6 -6 -18 -9 -27 -6 -11 5 -13 2 -8 -8 4 -8 0 -5 -8 5 -9 11 -16 15 -16 9 0
-6 -11 -10 -24 -9 -23 1 -24 2 -8 20 9 11 11 16 5 12 -7 -4 -13 -3 -13 1 0 5
6 15 13 22 9 11 9 12 0 7 -9 -5 -11 -2 -7 8 3 9 11 13 18 10 6 -3 2 2 -8 10
-20 16 -20 16 0 16 18 1 18 1 1 11 -9 6 -15 15 -12 20 4 5 12 6 18 2 9 -5 9
-3 0 8 -10 12 -10 18 0 28 9 10 9 11 -3 6 -11 -4 -16 1 -17 15 -1 11 3 20 8
20 6 0 7 -5 3 -12 -4 -7 -3 -8 4 -4 13 8 5 36 -10 36 -6 0 -8 13 -6 30 3 20 0
31 -11 35 -12 5 -13 8 -2 14 10 6 9 10 -5 15 -16 6 -16 8 -4 16 13 8 12 10 -3
10 -10 0 -16 4 -12 9 3 5 -2 16 -10 24 -8 9 -15 23 -15 33 0 14 -2 15 -17 3
-11 -10 -14 -10 -9 -1 4 7 2 12 -4 12 -6 0 -8 5 -5 10 3 6 -1 10 -9 10 -9 0
-16 5 -16 10 0 6 -7 10 -15 10 -8 0 -15 5 -15 11 0 6 -7 8 -16 5 -8 -3 -13 -2
-10 2 3 4 -4 14 -16 21 -16 10 -19 10 -12 -1 4 -7 -3 -4 -15 7 -13 11 -32 19
-42 17 -10 -2 -19 1 -19 6 0 6 -8 9 -17 8 -10 -2 -24 4 -31 13 -8 9 -10 10 -7
3 6 -11 3 -11 -13 -1 -12 7 -18 18 -14 24 3 5 -2 4 -11 -4 -13 -10 -17 -10
-17 -1 0 7 -7 10 -15 6 -10 -3 -15 1 -15 12 0 15 -2 15 -10 2 -6 -10 -10 -11
-10 -2 0 6 -10 12 -22 12 -19 0 -20 2 -8 11 12 8 9 10 -12 6 -15 -2 -26 -1
-24 2 3 3 -3 15 -11 26 -15 19 -15 19 -9 1 5 -16 4 -17 -9 -6 -8 7 -15 9 -15
4 0 -5 -11 4 -25 19 -27 28 -42 36 -29 15 6 -10 5 -10 -8 -1 -8 7 -19 9 -23 5
-5 -4 -5 -1 0 7 6 11 3 13 -13 9 -12 -4 -25 -1 -29 4 -4 7 -1 8 7 3 8 -5 11
-4 7 2 -4 6 -16 13 -27 16 -11 3 -18 1 -15 -3 3 -4 -4 -6 -15 -3 -11 3 -20 10
-20 15 0 5 -4 7 -9 4 -5 -3 -14 1 -21 9 -10 12 -16 13 -28 3 -10 -8 -13 -9 -9
-2 4 7 0 15 -9 18 -23 9 -26 8 -18 -6 6 -10 5 -10 -8 -1 -8 7 -18 10 -21 6 -4
-3 -7 -2 -7 4 0 6 -11 9 -25 7 -14 -1 -32 4 -40 13 -8 8 -15 10 -15 5 0 -11
-25 -10 -36 1 -4 3 -16 2 -27 -4 -14 -8 -18 -8 -13 0 5 7 -12 10 -54 7 -37 -2
-56 0 -48 5 10 7 10 9 -2 10 -8 0 -25 2 -38 3 -13 2 -25 -1 -28 -6 -3 -4 -10
-8 -15 -8 -6 0 -7 5 -4 10 7 11 2 13 -9 3z m1200 -1226 c4 -3 12 -3 18 0 17
11 37 12 30 2 -3 -5 2 -9 11 -9 10 0 13 5 9 13 -6 9 -4 9 8 -1 11 -9 18 -10
23 -2 4 6 13 7 23 1 9 -4 36 -8 60 -7 34 1 41 -2 37 -14 -3 -9 1 -7 10 4 8 11
15 14 15 7 0 -7 5 -9 10 -6 6 3 10 2 10 -4 0 -5 10 -11 23 -13 13 -2 22 -10
21 -20 -1 -11 5 -15 17 -13 16 3 17 1 9 -15 -8 -16 -8 -18 4 -14 11 4 14 0 11
-15 -2 -12 0 -21 5 -21 5 0 5 -13 0 -31 -8 -28 -8 -30 8 -18 9 7 14 9 10 5 -4
-5 -2 -16 5 -24 8 -11 8 -14 0 -9 -8 5 -11 -2 -11 -22 1 -19 5 -28 12 -24 7 4
7 2 -1 -8 -19 -23 -19 -25 -3 -44 9 -11 10 -16 3 -11 -7 4 -13 2 -13 -3 0 -6
6 -11 13 -11 8 0 7 -4 -3 -10 -8 -5 -11 -10 -6 -10 5 0 3 -7 -4 -15 -11 -13
-10 -14 6 -9 16 6 17 5 7 -7 -7 -7 -13 -17 -13 -22 0 -4 6 -5 13 -1 6 4 4 -2
-6 -13 -13 -15 -15 -23 -7 -28 9 -6 9 -10 -1 -16 -8 -5 -9 -9 -4 -9 6 0 10
-18 10 -40 0 -31 -3 -39 -14 -35 -10 4 -8 -2 5 -16 10 -12 14 -19 8 -16 -15 9
-25 -16 -14 -33 5 -8 4 -22 -2 -33 -7 -14 -7 -17 1 -13 7 5 9 1 5 -8 -3 -9
-11 -16 -17 -16 -6 0 -3 -6 8 -13 12 -10 14 -16 7 -21 -16 -10 -15 -29 1 -20
6 4 3 -2 -7 -14 -15 -17 -16 -22 -5 -23 11 0 11 -2 1 -6 -9 -4 -10 -8 -2 -18
8 -9 8 -15 0 -20 -14 -9 -13 -27 3 -20 6 4 3 -1 -7 -9 -15 -12 -16 -16 -5 -16
12 0 12 -2 0 -9 -13 -8 -13 -12 0 -27 12 -15 12 -17 0 -9 -11 6 -13 4 -8 -8 3
-10 2 -17 -3 -17 -5 0 -6 -7 -3 -17 5 -12 3 -14 -7 -8 -10 6 -11 4 -4 -6 13
-21 14 -40 2 -33 -7 5 -9 -2 -6 -20 4 -19 1 -26 -11 -26 -13 0 -13 -2 -3 -9
15 -9 6 -33 -27 -74 -13 -16 -13 -17 4 -11 10 4 -1 -11 -24 -34 -24 -23 -50
-42 -57 -42 -8 0 -14 -6 -14 -12 0 -10 -3 -9 -9 1 -6 9 -10 10 -16 2 -5 -9
-10 -9 -21 0 -12 10 -13 9 -7 -7 6 -17 5 -17 -10 -5 -14 11 -17 11 -17 0 -1
-9 -5 -8 -15 5 -15 20 -15 20 -15 0 0 -16 -2 -17 -10 -4 -9 13 -10 13 -10 0 0
-13 -1 -13 -10 0 -8 12 -10 12 -10 -5 0 -16 -2 -17 -10 -5 -5 8 -12 11 -16 7
-4 -4 -13 -2 -20 4 -8 7 -14 6 -20 -2 -5 -8 -3 -9 6 -4 9 5 11 4 6 -4 -6 -9
-11 -9 -22 0 -11 9 -14 8 -14 -2 0 -11 -2 -11 -8 -1 -6 9 -15 10 -35 3 -22 -8
-28 -6 -41 14 -13 20 -13 23 -2 19 16 -6 16 23 0 34 -12 9 -17 35 -5 28 5 -4
12 -2 16 4 3 5 0 10 -7 10 -9 0 -9 3 2 10 14 9 7 15 -15 10 -5 -1 -4 4 3 11
18 20 14 33 -5 18 -17 -13 -17 -12 -3 4 16 21 18 55 5 76 -5 10 -4 12 3 7 15
-9 15 -1 0 27 -10 21 -10 21 7 7 17 -14 17 -14 7 6 -8 16 -8 24 0 32 8 8 9 12
1 12 -6 0 -13 7 -17 15 -3 8 -1 14 3 12 5 -1 9 3 9 8 0 6 -5 9 -11 7 -7 -1 -3
5 7 13 11 8 15 15 9 15 -12 0 -11 39 1 59 5 8 5 12 0 8 -11 -6 -11 83 0 101 4
7 2 12 -6 12 -8 0 -9 3 -3 8 14 10 17 32 4 32 -5 0 -7 5 -4 10 4 6 10 8 15 5
10 -6 7 21 -3 31 -4 4 -1 14 6 22 9 13 9 14 0 8 -8 -4 -13 -1 -13 9 0 9 4 14
9 10 5 -3 13 0 17 6 4 8 3 9 -4 5 -7 -4 -12 -1 -12 9 0 10 -5 13 -12 9 -9 -6
-9 -3 1 9 7 9 11 23 8 30 -3 8 -1 20 3 27 5 8 4 22 -2 33 -8 15 -7 18 3 12 8
-6 11 -4 6 7 -3 9 0 21 6 28 9 10 7 11 -13 5 -24 -7 -24 -7 -5 8 11 9 17 19
13 23 -4 4 -3 14 4 21 9 11 9 17 -3 24 -12 8 -12 10 1 19 9 6 11 13 5 18 -14
10 -12 36 3 54 6 8 9 18 5 22 -11 10 -9 60 2 68 6 5 4 8 -5 9 -11 0 -9 3 4 8
17 7 17 8 2 24 -15 14 -15 17 -2 17 8 0 18 5 22 12 5 7 3 8 -6 3 -9 -5 -11 -4
-6 3 4 7 20 10 37 7 17 -3 28 -2 25 3 -6 10 30 9 40 -1z"/>
<path d="M3506 3438 c3 -5 10 -6 15 -3 13 9 11 12 -6 12 -8 0 -12 -4 -9 -9z"/>
<path d="M2546 4858 c3 -5 10 -6 15 -3 13 9 11 12 -6 12 -8 0 -12 -4 -9 -9z"/>
<path d="M886 4395 c-101 -44 -145 -74 -222 -149 -71 -69 -131 -174 -163 -281
-37 -127 -42 -175 -46 -520 -4 -305 -10 -349 -62 -434 -36 -58 -106 -102 -173
-109 -28 -2 -50 -10 -51 -16 -4 -45 -3 -220 1 -227 4 -5 25 -11 49 -14 84 -11
146 -56 186 -135 42 -83 48 -131 51 -410 3 -326 8 -389 41 -510 32 -114 83
-200 173 -291 72 -73 101 -94 181 -133 52 -25 102 -46 110 -46 11 0 23 26 39
83 13 45 25 87 27 94 3 6 -14 22 -38 33 -89 46 -170 162 -203 292 -23 90 -29
174 -31 468 -2 308 -10 362 -70 485 -37 74 -76 123 -138 169 l-38 29 23 15
c77 51 145 142 178 238 39 113 43 147 45 429 3 346 7 387 47 515 36 113 118
217 196 249 17 7 32 18 32 23 0 14 -52 172 -59 180 -3 4 -42 -8 -85 -27z"/>
<path d="M5365 4343 c-15 -49 -29 -91 -31 -95 -2 -3 16 -18 41 -32 87 -51 141
-118 181 -222 42 -109 51 -202 53 -511 1 -156 3 -288 6 -295 2 -7 6 -30 9 -50
8 -50 52 -165 80 -208 32 -49 84 -101 128 -130 21 -14 38 -27 38 -30 0 -3 -22
-18 -47 -35 -59 -37 -132 -127 -157 -191 -47 -125 -48 -138 -56 -484 -4 -184
-11 -351 -14 -370 -34 -171 -97 -279 -206 -349 l-57 -37 29 -92 c16 -51 33
-92 39 -92 21 0 137 54 188 88 139 93 261 267 287 412 2 14 9 48 15 75 12 55
18 204 20 482 0 105 6 205 13 235 35 151 119 229 253 237 22 1 22 3 20 123
l-2 123 -55 8 c-78 11 -144 58 -180 127 -40 77 -48 143 -50 368 -1 297 -6 394
-25 487 -50 244 -190 420 -405 511 -45 19 -83 34 -85 34 -2 0 -15 -39 -30 -87z"/>
<path d="M1530 4299 c0 -5 5 -7 10 -4 6 3 10 8 10 11 0 2 -4 4 -10 4 -5 0 -10
-5 -10 -11z"/>
<path d="M4877 3565 c-21 -7 -48 -21 -59 -32 -80 -72 -75 -231 9 -291 38 -27
64 -33 128 -33 110 0 182 63 191 168 7 67 -34 146 -87 173 -50 26 -133 33
-182 15z"/>
<path d="M4829 2102 l-26 -3 -1 -177 c0 -144 -4 -192 -21 -255 -22 -85 -68
-189 -112 -254 -16 -23 -29 -44 -29 -47 0 -7 166 -116 178 -116 18 0 126 126
168 196 92 155 121 273 123 499 l2 160 -128 0 c-70 0 -140 -1 -154 -3z"/>
<path d="M2750 1526 c0 -2 7 -7 16 -10 8 -3 12 -2 9 4 -6 10 -25 14 -25 6z"/>
</g>
</svg>
